<svg id="Calque_1" data-name="Calque 1" xmlns="http://www.w3.org/2000/svg" viewBox="0 0 2726.21 856.33"><defs><style>.cls-1{fill:#1c1b1b;}.cls-2,.cls-6{fill:none;}.cls-2{stroke:#fff;stroke-miterlimit:10;stroke-width:12px;}.cls-3{fill:#773afb;}.cls-4{fill:#fd8761;}.cls-5{opacity:0.25;}</style></defs><path class="cls-1" d="M1480.12,639.1c-17.72,13.58-41.5,23.61-72.46,25.94C1433.78,662.71,1458.85,654.06,1480.12,639.1Z" transform="translate(-136.79 -65.94)"/><path class="cls-1" d="M1372.64,494.43h225.09V616.1a212.82,212.82,0,0,1-63.3,76.35c-.17.18-.43.35-.61.52l-2.24,1.73C1493.44,722.29,1446.75,737,1397.8,737a25.88,25.88,0,0,1-2.68-.09,13.39,13.39,0,0,1-1.9,0c-1.64.09-3.29.09-4.93.09-120,0-226.38-88.2-226.38-240,0-151,112.07-239.18,231.31-239.27h.17c79.9,0,139.14,32.86,175.37,79.47a2.13,2.13,0,0,1,.52.69,198.94,198.94,0,0,1,31.65,59.92L1532.18,424l-4.5,1.73c-7.61-25.34-22.31-48.86-43.92-66.15-21.45-17.3-49.64-28.54-84.4-29.66-2-.09-4-.17-6-.17h-.17C1318.77,329.79,1241,383,1241,497c0,112.24,72.64,168.62,151.76,168.62h.52c2.68,0,5.36-.09,8-.18,2.07-.08,4.15-.25,6.31-.43,31-2.33,54.74-12.36,72.46-25.94,29.06-22,42-53.35,44.28-76.53H1372.64Z" transform="translate(-136.79 -65.94)"/><path class="cls-1" d="M1483.76,359.54c-24.91-18.77-54.74-28.45-84.4-29.66C1434.12,331,1462.31,342.24,1483.76,359.54Z" transform="translate(-136.79 -65.94)"/><path class="cls-1" d="M1988.13,569c0,97.27-69.38,168-164.07,168-94,0-163.43-70.69-163.43-168,0-96.63,69.4-167.32,163.43-167.32C1918.75,401.67,1988.13,472.36,1988.13,569Zm-75.87,0c0-65.5-41.5-99.23-88.2-99.23-46,0-88.2,33.73-88.2,99.23s42.16,100.52,88.2,100.52C1870.76,669.51,1912.26,635.14,1912.26,569Z" transform="translate(-136.79 -65.94)"/><path class="cls-1" d="M2136,727.22h-75.23V411.4h73.28v42.15c20.75-36.31,58.37-51.23,93.39-51.23,77.17,0,114.14,55.77,114.14,125.16V727.22h-75.24V540.45c0-38.91-17.5-70-64.84-70-42.81,0-65.5,33.08-65.5,74.58Z" transform="translate(-136.79 -65.94)"/><path class="cls-1" d="M2470,251.22a49.26,49.26,0,0,1,49.29,49.28c0,27.24-22,48.64-49.29,48.64a48.58,48.58,0,0,1-48.64-48.64C2421.35,273.27,2443.41,251.22,2470,251.22Zm-37,476V411.4h74.58V727.22Z" transform="translate(-136.79 -65.94)"/><path class="cls-1" d="M2680.77,546.29,2761.84,534c18.15-2.59,23.34-11.68,23.34-22.7,0-26.59-18.16-48-59.66-48-39.57,0-61.62,25.29-64.86,57.07l-68.74-15.57c5.84-54.47,55.13-103.11,132.95-103.11,97.28,0,134.24,55.12,134.24,118V676.64c0,28.54,3.24,47.34,3.89,50.58h-70c-.65-1.94-3.24-14.91-3.24-40.2-14.91,24-46,49.93-97.28,49.93-66.15,0-107-45.4-107-95.33C2585.44,585.2,2626.94,554.07,2680.77,546.29Zm104.41,49.93V582l-82.36,12.32c-23.35,3.89-42.16,16.86-42.16,42.8,0,21.4,16.22,40.86,46.05,40.86C2748.86,677.94,2785.18,657.83,2785.18,596.22Z" transform="translate(-136.79 -65.94)"/><path class="cls-2" d="M513.71,488.4" transform="translate(-136.79 -65.94)"/><path class="cls-3" d="M136.79,258.42V729.35L512.16,922.27l53.44-24V65.94Zm325,521.34L240.56,666.05V325.61l221.28-99.35Z" transform="translate(-136.79 -65.94)"/><polygon class="cls-4" points="753.86 282.07 753.86 686.41 428.81 832.38 428.81 718.58 650.09 619.31 650.09 437.2 523.41 489.6 429.07 528.6 428.81 528.69 428.81 416.36 429.07 416.27 523.41 377.27 753.86 282.07"/><polygon class="cls-5" points="523.43 377.27 523.43 489.6 428.81 528.69 428.81 416.36 523.43 377.27"/><line class="cls-6" x1="428.81" y1="718.58" x2="428.81" y2="528.69"/></svg>