<?xml version="1.0" encoding="UTF-8"?>
<svg width="24px" height="24px" viewBox="0 0 24 24" version="1.1" xmlns="http://www.w3.org/2000/svg" xmlns:xlink="http://www.w3.org/1999/xlink">
    <!-- Generator: Sketch 62 (91390) - https://sketch.com -->
    <title>Icons/Password</title>
    <desc>Created with Sketch.</desc>
    <g id="Icons/Password" stroke="none" stroke-width="1" fill="none" fill-rule="evenodd">
        <rect id="Box-24pt" x="0" y="0" width="24" height="24"></rect>
        <g id="padlock-(1)" transform="translate(4.000000, 1.000000)" fill="#000000" fill-rule="nonzero">
            <path d="M14.4375,8.25 L13.75,8.25 L13.75,5.5 C13.75,2.46675 11.28325,0 8.25,0 C5.21675,0 2.75,2.46675 2.75,5.5 L2.75,8.25 L2.0625,8.25 C0.925833333,8.25 0,9.17491667 0,10.3125 L0,19.9375 C0,21.0750833 0.925833333,22 2.0625,22 L14.4375,22 C15.5741667,22 16.5,21.0750833 16.5,19.9375 L16.5,10.3125 C16.5,9.17491667 15.5741667,8.25 14.4375,8.25 Z M4.58333333,5.5 C4.58333333,3.47783333 6.22783333,1.83333333 8.25,1.83333333 C10.2721667,1.83333333 11.9166667,3.47783333 11.9166667,5.5 L11.9166667,8.25 L4.58333333,8.25 L4.58333333,5.5 Z M9.16666667,15.3285 L9.16666667,17.4166667 C9.16666667,17.9226667 8.75691667,18.3333333 8.25,18.3333333 C7.74308333,18.3333333 7.33333333,17.9226667 7.33333333,17.4166667 L7.33333333,15.3285 C6.78791667,15.0104167 6.41666667,14.4255833 6.41666667,13.75 C6.41666667,12.7389167 7.23891667,11.9166667 8.25,11.9166667 C9.26108333,11.9166667 10.0833333,12.7389167 10.0833333,13.75 C10.0833333,14.4255833 9.71208333,15.0104167 9.16666667,15.3285 Z" id="Shape"></path>
        </g>
    </g>
</svg>